<svg width="16" height="15" viewBox="0 0 16 15" fill="none" xmlns="http://www.w3.org/2000/svg">
<path d="M6.71916 2.42764C7.10224 1.10339 7.29378 0.441261 7.58904 0.273897C7.84395 0.129404 8.15601 0.129404 8.41092 0.273897C8.70618 0.441261 8.89772 1.10339 9.2808 2.42764L9.7809 4.15642C9.88393 4.51261 9.93545 4.6907 10.0405 4.82108C10.1332 4.93612 10.2547 5.02446 10.3928 5.07705C10.5492 5.13665 10.7345 5.13061 11.1051 5.11854L12.9038 5.05994C14.2817 5.01505 14.9706 4.99261 15.221 5.2217C15.4372 5.41948 15.5336 5.71627 15.475 6.00335C15.407 6.33588 14.8365 6.72265 13.6954 7.4962L12.2058 8.50605C11.8989 8.71411 11.7454 8.81814 11.6539 8.95832C11.5731 9.082 11.5267 9.22494 11.5193 9.37248C11.511 9.53969 11.574 9.71405 11.7 10.0628L12.3115 11.7553C12.78 13.0519 13.0142 13.7001 12.8737 14.0091C12.7524 14.2758 12.5 14.4592 12.2088 14.4922C11.8716 14.5303 11.3274 14.1072 10.2391 13.261L8.8184 12.1564C8.52568 11.9288 8.37932 11.815 8.21772 11.7712C8.07512 11.7326 7.92483 11.7326 7.78224 11.7712C7.62063 11.815 7.47428 11.9288 7.18156 12.1564L5.76081 13.261C4.67252 14.1072 4.12837 14.5303 3.79113 14.4922C3.49997 14.4592 3.24751 14.2758 3.12621 14.0091C2.98572 13.7001 3.21995 13.0519 3.68841 11.7553L4.29997 10.0628C4.42597 9.71405 4.48897 9.53969 4.48063 9.37248C4.47328 9.22494 4.42684 9.082 4.34606 8.95832C4.25452 8.81814 4.10107 8.71411 3.79416 8.50605L2.30453 7.4962C1.16346 6.72265 0.592933 6.33588 0.525 6.00335C0.46635 5.71627 0.562783 5.41948 0.778975 5.2217C1.02939 4.99261 1.7183 5.01505 3.09612 5.05994L4.89482 5.11854C5.26542 5.13061 5.45071 5.13665 5.60717 5.07705C5.74521 5.02446 5.8668 4.93612 5.95947 4.82108C6.0645 4.6907 6.11602 4.51261 6.21906 4.15642L6.71916 2.42764Z" fill="#FFE810"/>
</svg>
